PathFileType	4	(X/Y/Z)	/Users/niels/Desktop/University/Third Semester/Perception and Action/Exam/Gymnastics Motion Tracking/Code for Gym Tracking/Analyzed Data/Backflip/id2_2_pure_Sports2D/id2_2_pure_Sports2D_px_person00.trc
DataRate	CameraRate	NumFrames	NumMarkers	Units	OrigDataRate	OrigDataStartFrame	OrigNumFrames
59.925093632958806	59.925093632958806	7	22	m	59.925093632958806	90	241
Frame#	Time	Hip			RHip			RKnee			RAnkle			RBigToe			RSmallToe			RHeel			LHip			LKnee			LAnkle			LBigToe			LSmallToe			LHeel			Neck			Head			Nose			RShoulder			RElbow			RWrist			LShoulder			LElbow			LWrist		
		X1	Y1	Z1	X2	Y2	Z2	X3	Y3	Z3	X4	Y4	Z4	X5	Y5	Z5	X6	Y6	Z6	X7	Y7	Z7	X8	Y8	Z8	X9	Y9	Z9	X10	Y10	Z10	X11	Y11	Z11	X12	Y12	Z12	X13	Y13	Z13	X14	Y14	Z14	X15	Y15	Z15	X16	Y16	Z16	X17	Y17	Z17	X18	Y18	Z18	X19	Y19	Z19	X20	Y20	Z20	X21	Y21	Z21	X22	Y22	Z22
90	1.501875	1.0103769754956151	-0.5290493679551919	0.0	1.0059746289298666	-0.5308933660748968	0.0	1.0066144734942382	-0.6279509971724717	0.0	0.9941627693924028	-0.7203298058734703	0.0	1.0213644644007172	-0.7457817467772815	0.0	1.016217001839516	-0.7491065400719884	0.0	0.9871153164208369	-0.729523670919452	0.0	1.0161066942299812	-0.5319674780626191	0.0	1.0185597426640454	-0.6274613208238119	0.0	1.002040504021943	-0.716483836881331	0.0	1.0373794342392744	-0.7261880815180262	0.0	1.0292077032600464	-0.7216196582208135	0.0	0.9913070789807713	-0.7233181168017402	0.0	1.030283133786108	-0.39416244365460695	0.0	1.048942508793514	-0.3357455400093694	0.0	1.0635433281038984	-0.37243378221460877	0.0	1.032622557322283	-0.4071443196979271	0.0	1.0988994653306734	-0.41797848516111424	0.0	1.1566384524608977	-0.4156003503694101	0.0	1.0306859818410614	-0.4078776587866896	0.0	1.0965004026084932	-0.4211785869985824	0.0	1.153774524624445	-0.42216157781154423	0.0
91	1.5185625	1.0098619382087102	-0.5294918206713379	0.0	1.0054821696781786	-0.5312857390505845	0.0	1.0062808603787674	-0.6282597640242765	0.0	0.9939233746769197	-0.7207401617506867	0.0	1.021062908738355	-0.7452018550207565	0.0	1.0160658535409923	-0.7485571344550359	0.0	0.9868794977516466	-0.7298541518914875	0.0	1.0156697883337624	-0.5323742230896946	0.0	1.0182332378676309	-0.6278107016706598	0.0	1.0019953465887481	-0.7168453867356189	0.0	1.0371926105882059	-0.7274329737605968	0.0	1.0291847052482932	-0.7222001968008401	0.0	0.9911722279359833	-0.7240839040031519	0.0	1.0305361150141195	-0.3949371666172351	0.0	1.0489781259803874	-0.33635169683562155	0.0	1.0636841328290214	-0.3730587769993984	0.0	1.033159329101119	-0.4087642491405684	0.0	1.0985362127248943	-0.4247149458872189	0.0	1.156402735951821	-0.42733754337240304	0.0	1.0300960490785787	-0.40919729937330873	0.0	1.0949896134522572	-0.4283319192307297	0.0	1.1524857201144054	-0.43318609237494327	0.0
92	1.53525	1.0094594990668753	-0.5300334854192026	0.0	1.0051110549257618	-0.5318698653942063	0.0	1.00603279171854	-0.6286767733875146	0.0	0.993701850728357	-0.72125243804529	0.0	1.0209279897967414	-0.7452683119973429	0.0	1.0158437428125138	-0.748577809141326	0.0	0.986630078655996	-0.7304791795252118	0.0	1.015320619837518	-0.5329375051517939	0.0	1.0179525814877237	-0.6282877138645865	0.0	1.0019461867709754	-0.7173061085949715	0.0	1.036909629630927	-0.7293115244410034	0.0	1.029175100602842	-0.7230496676473809	0.0	0.9910992296374526	-0.725199127000875	0.0	1.0308099359378349	-0.3957608636845097	0.0	1.0489750080172253	-0.3370989304640602	0.0	1.0638612274416084	-0.3737665878819005	0.0	1.0335750753452928	-0.41047749450701054	0.0	1.0977066103109308	-0.43152185909337437	0.0	1.1554002506955499	-0.4390898329949235	0.0	1.0294585462790369	-0.41060362552180296	0.0	1.0928708046092042	-0.4354381633290586	0.0	1.150265317221245	-0.44410262952720336	0.0
93	1.5519375000000002	1.0091770612577913	-0.5306765652562605	0.0	1.0048668010485005	-0.532631135815562	0.0	1.005877768251836	-0.6292035460799715	0.0	0.9934921831734397	-0.7218385071372151	0.0	1.0209712121805747	-0.7458842895898019	0.0	1.015559837338609	-0.7490932575695155	0.0	0.986361053469607	-0.7313721733761013	0.0	1.0150688142361908	-0.5336411386769475	0.0	1.017735408151181	-0.6288861339483912	0.0	1.001890565683844	-0.7178417707403639	0.0	1.0365433436553864	-0.7317611769626191	0.0	1.0291769951849032	-0.7241393994314352	0.0	0.9911009236015882	-0.7266335476930418	0.0	1.031084616978665	-0.39662192920119727	0.0	1.0489357460645972	-0.3379726663952278	0.0	1.0640598796474623	-0.37455161345959026	0.0	1.0338529293853365	-0.41224768835872677	0.0	1.0964107623173445	-0.43834272483234754	0.0	1.1536199927028323	-0.45077651557582804	0.0	1.0287701193700944	-0.41206920357158905	0.0	1.0900950395491986	-0.44241161463666845	0.0	1.1470186376707976	-0.45486715143407597	0.0
94	1.5686250000000002	1.0090150039801502	-0.5314195923111856	0.0	1.004750481788628	-0.5335388670872684	0.0	1.0058197305884844	-0.6298432565182991	0.0	0.9932918948262693	-0.7224793092905902	0.0	1.0211884381394167	-0.7468813766496764	0.0	1.0152102561056648	-0.7499497397684527	0.0	0.9860704522178056	-0.732517125493655	0.0	1.0149206142603757	-0.5344557120959332	0.0	1.017593696089207	-0.6295955453068405	0.0	1.0018305703849728	-0.7184385607636671	0.0	1.0361227056443763	-0.7346928717998824	0.0	1.0291835881240288	-0.725438467551528	0.0	0.9911934572422398	-0.7283527023793643	0.0	1.031344307106839	-0.39751204366264103	0.0	1.0488704480750168	-0.3389501586819466	0.0	1.0642632357502708	-0.37540656633280395	0.0	1.0339872867592521	-0.4140413893099515	0.0	1.0946589247077945	-0.44512479186092985	0.0	1.151066307971191	-0.462323041487942	0.0	1.028028908199044	-0.41356708237370354	0.0	1.0866211648804378	-0.44917110919749187	0.0	1.142642213756796	-0.4654461402983138	0.0
95	1.5853125000000001	1.0089676870438016	-0.5322607460331359	0.0	1.0047616692389862	-0.5345587802486335	0.0	1.0058583807865396	-0.6305969003366428	0.0	0.9931010446712248	-0.7231630809192443	0.0	1.021540346126202	-0.7481068396319533	0.0	1.0147647288001473	-0.7509902964477752	0.0	0.9857637595658311	-0.7339072181318954	0.0	1.0148750117789493	-0.5353534579440472	0.0	1.0175309005645299	-0.630402658465437	0.0	1.001771935254968	-0.7190876824986495	0.0	1.0356780154389422	-0.7379813421165412	0.0	1.02917313245492	-0.7269135671209125	0.0	0.9913906744768975	-0.7303138253278348	0.0	1.0315778673591285	-0.39842564424983323	0.0	1.0487936813856382	-0.3400076810529126	0.0	1.0644581315767858	-0.3763233820082502	0.0	1.0339817821349224	-0.4158280859170898	0.0	1.092466265727078	-0.4518159600901223	0.0	1.147762271899611	-0.4736514967690563	0.0	1.0272298888384086	-0.4150702460067316	0.0	1.082430055628683	-0.4556447950312567	0.0	1.1370400014243203	-0.4758149486653782	0.0
96	1.602	1.0090266265549133	-0.5331988050591513	0.0	1.0048998027304878	-0.5356633089917242	0.0	1.0059885869392309	-0.6314595394512977	0.0	0.9929200693376058	-0.7238786299757337	0.0	1.0219584798656005	-0.7494676358465018	0.0	1.0141798180586215	-0.752099354110858	0.0	0.9854510597896416	-0.7355301729987351	0.0	1.0149252519532865	-0.5363192125580936	0.0	1.017543937759759	-0.6312901574730349	0.0	1.0017229950811257	-0.7197753865221146	0.0	1.035232567128019	-0.7414479314824305	0.0	1.0291118117159017	-0.7285256211196947	0.0	0.9916973762220426	-0.732451446223756	0.0	1.0317799343733702	-0.3993576189629364	0.0	1.048722352371052	-0.3411266466565147	0.0	1.0646393525015696	-0.37729255082377033	0.0	1.033843660377888	-0.41757973647882973	0.0	1.0898433725089207	-0.4583610782801519	0.0	1.143740216494443	-0.4846807723756279	0.0	1.0263728112918407	-0.4165525088406947	0.0	1.0775383852070248	-0.4617727745387954	0.0	1.1301448143214565	-0.48594948597429144	0.0
